<?xml version="1.0" encoding="UTF-8"?><svg id="Calque_2" xmlns="http://www.w3.org/2000/svg" viewBox="0 0 80.58 80.58"><g id="Calque_1-2"><g id="elements_graphiques"><g><circle cx="40.29" cy="40.29" r="40.29" style="fill:#09aa9a;"/><polygon points="39.54 21.17 46.35 17.31 50 24.24 57.82 24.68 57.14 32.48 63.48 37.08 58.69 43.27 61.54 50.57 54.16 53.19 52.62 60.87 44.99 59.09 39.54 64.71 34.09 59.09 26.46 60.87 24.91 53.19 17.53 50.57 20.38 43.27 15.59 37.08 21.93 32.48 21.26 24.68 29.07 24.24 32.72 17.31 39.54 21.17" style="fill:#fcdc63;"/><path d="M45.31,45.54c2.34-1.02,3.42-3.75,2.4-6.09-1.02-2.34-3.75-3.42-6.09-2.4-2.34,1.02-3.42,3.75-2.4,6.09h0c1.02,2.35,3.75,3.42,6.09,2.4m8.55-2.63c.45,.18,.67,.69,.5,1.14l-1.05,2.69c-.18,.45-.69,.68-1.14,.5h0l-1.72-.68c-.44,.59-.96,1.13-1.53,1.59l.74,1.69c.19,.44,0,.96-.45,1.16l-2.6,1.13c-.44,.2-.96,0-1.16-.45l-.74-1.7c-.73,.09-1.47,.09-2.2,0l-.67,1.73c-.18,.45-.69,.67-1.14,.49l-2.64-1c-.45-.17-.67-.67-.5-1.12h0l.68-1.74c-.59-.44-1.13-.95-1.59-1.52l-1.69,.74c-.45,.19-.96,0-1.16-.46h0l-1.13-2.6c-.19-.44,.01-.95,.45-1.15l1.7-.74c-.09-.73-.09-1.47,0-2.2l-1.72-.68c-.45-.16-.67-.66-.51-1.1v-.03l1.01-2.64c.16-.45,.66-.67,1.1-.51h.03l1.73,.69c.44-.59,.95-1.13,1.52-1.59l-.74-1.7c-.19-.44,0-.95,.45-1.15h.01l2.6-1.13c.43-.2,.94,0,1.14,.43v.02l.75,1.7c.73-.09,1.47-.09,2.2,0l.68-1.73c.18-.45,.69-.67,1.14-.49l2.64,1c.45,.18,.67,.69,.49,1.14l-.67,1.72c.59,.44,1.12,.96,1.58,1.53l1.7-.74c.44-.19,.95,.01,1.15,.45l1.14,2.6c.19,.45,0,.96-.46,1.16h0l-1.69,.74c.08,.73,.08,1.47,0,2.2l1.72,.67" style="fill:none; stroke:#e71d73; stroke-miterlimit:10;"/><path d="M23.24,40.35c1.71-.03,3.06-.88,3-1.89s-1.49-1.8-3.2-1.77c-1.71,.03-3.05,.88-3,1.89,.05,1.01,1.48,1.81,3.2,1.77h0m5.6-1.02c-.12,.28-.29,.56-.52,.82l.9,.5c.23,.13,.23,.35,.01,.48h-.01l-1.3,.83c-.22,.14-.59,.14-.82,0h-.01l-.91-.51c-.42,.16-.88,.28-1.35,.36v.74c.01,.19-.24,.35-.56,.35h-.01l-1.93,.03c-.32,0-.59-.15-.61-.34v-.74c-.48-.07-.95-.17-1.38-.31l-.86,.54c-.23,.13-.6,.13-.83,0l-1.38-.78c-.23-.13-.23-.35-.01-.48h.01l.85-.54c-.26-.25-.46-.51-.6-.79h-1.25c-.33,0-.6-.14-.61-.34h0l-.06-1.14c-.01-.19,.24-.35,.57-.36h1.25c.12-.28,.29-.56,.52-.82l-.9-.5c-.23-.13-.23-.35-.01-.48h.01l1.3-.83c.23-.13,.6-.13,.83,0l.91,.5c.42-.15,.87-.27,1.34-.36v-.74c-.01-.19,.24-.35,.56-.35h.01l1.93-.03c.33,0,.6,.14,.61,.34h0v.74c.48,.07,.95,.17,1.38,.31l.86-.54c.22-.14,.59-.14,.82,0h.01l1.38,.78c.23,.13,.23,.35,.01,.48h-.01l-.85,.54c.26,.25,.46,.51,.6,.79h1.25c.33,0,.6,.14,.61,.34h0l.06,1.14c.01,.19-.24,.35-.57,.36h-1.24Z" style="fill:#fcdc63; stroke:#e71d73; stroke-miterlimit:10; stroke-width:.74px;"/><path d="M32.55,32.43s.44-1.32,3.3-3.3c1.63-1.16,3.52-1.92,5.5-2.2" style="fill:none; stroke:#e71d73; stroke-linecap:round; stroke-miterlimit:10;"/><path d="M31.48,30.49c.61-1.08,1.44-2.01,2.43-2.75,.85-.86,2-1.37,3.21-1.43" style="fill:none; stroke:#e71d73; stroke-linecap:round; stroke-miterlimit:10;"/><path d="M24.39,52.44c1.22,.11,2.45-.07,3.59-.54,.96-.45,1.77-1.19,2.31-2.1" style="fill:none; stroke:#e71d73; stroke-linecap:round; stroke-miterlimit:10;"/></g></g></g></svg>