<?xml version="1.0" encoding="UTF-8"?><svg id="Calque_2" xmlns="http://www.w3.org/2000/svg" viewBox="0 0 209.53 34.1"><g id="Calque_1-2"><g><path d="M209.53,1.86c-15.27-1.73-30.65-2.25-46-1.56-42,1.82-92.83,7.49-122.92,6.57-12.16-.38-24.55-1.31-40.61-1.76v27.19c19.2,.52,28,1.89,42.17,1.8,37.41-.25,84-5.69,122-7.11,13.68-.54,27.38-.11,41,1.28l4.36-26.41Z" style="fill:#fff;"/><g style="isolation:isolate;"><path d="M37.46,11.28h.04c.46,0,.81,.14,1.05,.41-.19,1.94-.34,4.2-.45,6.79,.14,4.74,.23,7.35,.28,7.86-.14,.34-.45,.5-.94,.49-.47,0-.7-.22-.69-.64-.19-2.81-.27-5.42-.24-7.82,0-.65,.04-1.58,.08-2.77,.03-.05,.04-.09,.04-.12-1.29,1.97-2.06,3.11-2.32,3.4-.14,.1-.26,.15-.35,.15h-.08c-.26,0-.59-.44-1-1.31-.18-.23-.52-.81-1.03-1.73h-.04c.31,5.53,.49,9.04,.55,10.52-.24,.26-.7,.38-1.37,.37h-.08c-.26,0-.38-.85-.35-2.54-.29-6.54-.54-10.56-.72-12.08v-.27c.01-.52,.29-.78,.84-.77,.61,0,1.02,.28,1.24,.8,.68,1.38,1.39,2.74,2.13,4.09h.04c1.91-3.06,2.93-4.64,3.08-4.76,.1-.05,.2-.08,.31-.07Z"/></g><g style="isolation:isolate;"><path d="M41.88,13.82c.42,0,1.41,.02,2.97,.05,.6,0,.9,.19,.9,.55v.51c0,.44-.15,.66-.44,.66h-.74c-.46,0-1.08,.03-1.88,.1v.27c0,.61-.02,1.48-.05,2.62l2.58-.18c.29,0,.43,.32,.42,.94v.23c0,.34-.2,.51-.59,.5-.2,.03-1.03,.09-2.5,.18l.05,4.96c.55,0,1.61-.04,3.17-.14,.25,0,.38,.21,.39,.63v.16c0,.62-.23,.94-.67,.93l-3.67,.25h-.08c-.57,0-.86-.15-.86-.43-.09-1.89-.14-3.93-.12-6.09v-.66c.1-3.91,.28-5.86,.54-5.86,.16-.13,.36-.19,.59-.19Z"/></g><g style="isolation:isolate;"><path d="M51.07,13.72c.79,0,1.37,.42,1.74,1.26,.16,.55,.27,1.39,.33,2.54,0,.62-.23,.94-.7,.94-.66-.06-1-.19-1-.39,0-.16,0-.32,0-.46,0-1.22-.26-1.84-.77-1.84h-.2c-.55,0-.82,.42-.82,1.26v.41c.07,1.22,.8,2.12,2.21,2.7,.59,.46,.89,1.45,.89,2.97,0,.15,0,.31,0,.47v.3c0,1.75-.23,2.82-.7,3.23-.51,.35-1.14,.53-1.88,.53h-.04c-1.1,0-1.83-.45-2.19-1.36-.26-.64-.39-1.42-.39-2.32v-.57c0-.44,.14-.75,.43-.91,.18-.05,.42-.08,.74-.11,.42,.07,.62,.27,.62,.6-.05,.42-.09,.84-.12,1.28,0,.84,.31,1.32,.94,1.44h.16c.37,0,.57-.32,.62-.95v-.37c0-1.61-.16-2.58-.47-2.9-1.72-.86-2.58-2.17-2.58-3.95v-.86c0-1.42,.62-2.36,1.88-2.82,.47-.08,.9-.12,1.29-.12Z"/></g><g style="isolation:isolate;"><path d="M61.03,13.55c1.55-.03,2.54,.41,2.96,1.31,.27,.51,.41,1.07,.42,1.67,.03,1.47-.31,2.53-1.03,3.19,.84,.51,1.28,1.54,1.31,3.1,.02,1-.28,2.06-.91,3.18-.27,.39-.74,.69-1.39,.89-.92,.23-1.66,.35-2.22,.36h-.31c-.24,.01-.39-.19-.44-.61,0-.2,0-.91,.04-2.15-.08-1.58-.14-2.88-.16-3.91-.01-.65,.02-2.41,.09-5.28-.03-.23-.05-.53-.06-.9,.14-.48,.62-.77,1.43-.85h.27Zm-.28,1.76c-.03,1.18-.04,2.14-.02,2.85v.27c0,.22,.03,.57,.07,1.05h.04c.62-.11,1.15-.36,1.59-.78,.38-.56,.56-1.18,.55-1.85-.02-.87-.33-1.41-.93-1.62l-.59-.11c-.47,.05-.7,.11-.7,.17Zm.2,5.93v4.34h.13c1.09-.02,1.78-.68,2.07-1.96,.04-.41,.06-.76,.06-1.06v-.12c-.02-.91-.5-1.36-1.44-1.34-.4,.03-.67,.08-.82,.13Z"/></g><g style="isolation:isolate;"><path d="M70.54,13.28l.55-.02c.99-.03,1.5,.48,1.53,1.52,.19,1.04,.31,2.4,.36,4.09,.03,4.77,.01,7.15-.06,7.16-.18,.21-.44,.32-.77,.33l-.51,.02c-.29,0-.43-.1-.44-.34,.03-.75,.06-2.34,.09-4.77l-3.21-.1c.02,.53,.08,2.23,.19,5.08,.03,.23,.05,.37,.05,.43,0,.26-.42,.4-1.28,.43-.22,0-.37-.17-.45-.53l-.41-10.94c-.02-.51,.3-1,.93-1.47,1.11-.55,2.25-.85,3.41-.88Zm-2.71,3.4c.13,1.86,.2,2.82,.2,2.89l3.36,.05v-2.42c-.04-1.51-.36-2.26-.96-2.24-.14-.02-.27-.03-.39-.03-.66,.02-1.32,.23-1.97,.64-.18,.21-.26,.58-.24,1.1Z"/></g><g style="isolation:isolate;"><path d="M77.17,13.17c1.38-.08,2.35,.53,2.89,1.82,.48,1.53,.78,3.18,.88,4.96,.18,3.06-.11,5.03-.86,5.92-.8,.54-1.89,.85-3.27,.94-.68,.04-1.03-.13-1.05-.53v-.04c-.18-3-.43-6.97-.75-11.93-.02-.39,.16-.67,.54-.85,.47-.16,1.01-.25,1.63-.29Zm-.75,1.8c.3,3.39,.47,5.3,.49,5.72,.11,2.3,.19,3.8,.23,4.49,1.28-.24,1.91-.5,1.89-.8,.37-.32,.51-1.78,.43-4.39v-.23c-.21-3.25-.77-4.85-1.71-4.79-.04-.06-.29-.09-.75-.11l-.58,.11Z"/></g><g style="isolation:isolate;"><path d="M84.54,12.31l.73-.08c1.18-.13,2.01,.09,2.5,.66,.1,.23,.17,.44,.19,.64l.25,2.24c.04,.39-.19,.61-.71,.67h-.12c-.54,.07-.83-.09-.88-.48-.1-1.17-.17-1.85-.19-2.05-.48-.08-.82-.1-1.03-.08-.7,.08-1.07,.56-1.09,1.45-.01,.59,.04,1.38,.15,2.37l.59,5.34c.07,.66,.47,1.02,1.18,1.08,.14-.01,.25-.01,.35,0,.27-.06,.66-.17,1.18-.33l-.17-2.57c-.7,.13-1.14,.21-1.31,.22-.09-.12-.15-.28-.17-.49l-.03-.23c-.07-.67,.12-1.03,.58-1.08,0-.04,.18-.09,.57-.14l.15-.02c.92-.1,1.43-.03,1.51,.22l.18,1.66c.28,2.53,.18,3.82-.31,3.87-.23,.13-.92,.29-2.06,.46-1.32,.15-2.24-.1-2.75-.75-.13,.01-.4-1.46-.8-4.41-.45-4.03-.4-6.51,.15-7.45,.23-.29,.67-.53,1.33-.74Z"/></g><g style="isolation:isolate;"><path d="M91.03,11.76c.41-.04,1.4-.13,2.96-.27,.6-.06,.91,.09,.95,.45l.05,.5c.04,.44-.07,.68-.36,.71l-.74,.08c-.45,.05-1.07,.15-1.85,.31l.03,.27c.06,.6,.14,1.47,.23,2.61l2.54-.46c.29-.03,.46,.27,.52,.89l.02,.23c.04,.34-.14,.53-.53,.57-.19,.05-1.01,.2-2.47,.45l.59,4.93c.55-.06,1.59-.22,3.13-.48,.25-.03,.4,.17,.45,.58l.02,.16c.06,.62-.12,.96-.56,1l-3.62,.65h-.08c-.57,.07-.87-.05-.9-.33-.3-1.87-.56-3.89-.78-6.04l-.07-.66c-.33-3.89-.36-5.85-.1-5.88,.15-.15,.34-.23,.56-.25Z"/></g><g style="isolation:isolate;"><path d="M100.35,10.71c.78-.07,1.4,.29,1.85,1.09,.21,.53,.4,1.36,.57,2.5,.06,.62-.15,.96-.61,1-.67,0-1.01-.09-1.03-.29,0-.16-.02-.32-.03-.46-.11-1.22-.43-1.8-.94-1.76l-.19,.02c-.54,.05-.78,.5-.7,1.33l.04,.41c.18,1.21,1,2.03,2.45,2.48,.63,.4,1.02,1.36,1.16,2.87,.01,.15,.03,.31,.04,.47l.03,.3c.16,1.74,.03,2.83-.4,3.29-.48,.4-1.08,.63-1.82,.7h-.04c-1.1,.11-1.86-.27-2.31-1.14-.32-.62-.52-1.38-.61-2.28l-.05-.56c-.04-.44,.07-.76,.34-.94,.17-.06,.41-.12,.73-.18,.42,.03,.65,.21,.68,.54-.01,.42-.01,.85,0,1.28,.08,.84,.44,1.28,1.07,1.34h.16c.36-.05,.54-.38,.53-1.02l-.04-.37c-.15-1.61-.4-2.55-.74-2.84-1.79-.69-2.77-1.92-2.94-3.69l-.08-.86c-.13-1.41,.4-2.41,1.6-2.99,.46-.12,.88-.2,1.27-.24Z"/></g><g style="isolation:isolate;"><path d="M111.52,9.83c1.38-.11,2.36,.48,2.92,1.77,.51,1.52,.83,3.17,.97,4.94,.24,3.06-.01,5.04-.75,5.94-.79,.56-1.87,.89-3.25,1-.68,.05-1.03-.12-1.06-.5v-.04c-.24-2.99-.56-6.96-.97-11.91-.03-.39,.14-.68,.52-.86,.46-.17,1-.27,1.62-.32Zm-.72,1.82c.37,3.39,.57,5.29,.6,5.71,.15,2.3,.26,3.79,.31,4.48,1.27-.26,1.9-.54,1.87-.83,.37-.32,.48-1.79,.34-4.4l-.02-.23c-.25-3.25-.85-4.83-1.78-4.76-.04-.06-.29-.09-.75-.1l-.58,.12Z"/></g><g style="isolation:isolate;"><path d="M117.87,9.39c.42-.03,1.4-.08,2.96-.16,.6-.04,.91,.12,.93,.49l.03,.51c.03,.44-.1,.67-.38,.69l-.74,.05c-.46,.03-1.08,.11-1.86,.24l.02,.27c.04,.6,.09,1.47,.14,2.61l2.56-.37c.29-.02,.45,.28,.49,.91l.02,.23c.02,.34-.16,.52-.55,.55-.19,.04-1.02,.16-2.48,.36l.41,4.94c.55-.04,1.6-.16,3.15-.37,.25-.02,.39,.18,.43,.6v.16c.05,.62-.15,.95-.59,.98l-3.64,.52h-.08c-.57,.04-.87-.08-.89-.37-.23-1.88-.42-3.91-.57-6.07l-.04-.66c-.19-3.9-.15-5.86,.11-5.88,.15-.14,.34-.22,.57-.23Z"/></g><g style="isolation:isolate;"><path d="M131.08,8.1c1.05-.05,1.96,.42,2.73,1.43,.38,.74,.59,1.54,.63,2.39,.07,1.46-.38,2.63-1.35,3.51,.9,2.12,1.77,3.93,2.62,5.42v.08c.02,.28-.4,.56-1.24,.84-.18,0-.52-.59-1.03-1.79-1.17-2.45-1.79-3.72-1.87-3.82h-.04s-.18,.02-.5,.07l.64,5.76c-.18,.14-.42,.22-.73,.23h-.08c-.49,.03-.75-.12-.76-.43-.46-4-.87-8.26-1.23-12.77-.02-.47,.1-.71,.36-.72,.73-.11,1.35-.18,1.87-.21Zm-.62,1.71c0,.48,0,.78,0,.9,.07,1.47,.19,2.76,.35,3.86l.39-.02c.84-.04,1.38-.59,1.64-1.65,.06-.3,.09-.62,.07-.94v-.12c-.08-1.43-.83-2.11-2.26-2.04h-.2Z"/></g><g style="isolation:isolate;"><path d="M137.84,8.28c.42-.02,1.41-.04,2.97-.08,.6-.02,.91,.15,.92,.51l.02,.51c.02,.44-.12,.67-.4,.68l-.74,.03c-.46,.02-1.08,.08-1.87,.19v.27c.03,.6,.05,1.48,.07,2.62l2.57-.29c.29-.01,.44,.29,.47,.92v.23c.02,.34-.17,.51-.56,.53-.19,.03-1.03,.13-2.49,.29l.27,4.95c.55-.02,1.6-.11,3.16-.28,.25,0,.39,.19,.42,.61v.16c.03,.62-.18,.95-.62,.96l-3.66,.42h-.08c-.57,.03-.86-.11-.88-.39-.18-1.89-.31-3.92-.39-6.08l-.03-.66c-.07-3.91,.02-5.86,.28-5.88,.16-.14,.35-.21,.58-.22Zm2.68-4.44h.12c.28-.01,.5,.28,.66,.87v.23c.02,.33-.47,.73-1.47,1.19-1.02,.64-1.63,.96-1.84,.97h-.12c-.4,.02-.66-.24-.77-.79v-.27c-.02-.27,.36-.57,1.13-.9,1.11-.7,1.88-1.14,2.29-1.3Z"/></g><g style="isolation:isolate;"><path d="M145,8c.57,.04,.86,.16,.87,.37-.1,2.74-.14,4.51-.11,5.32,.09,3.02,.29,4.77,.59,5.26,.16,.2,.35,.3,.56,.3h.04c.75-.02,1.12-.45,1.09-1.29,.07-.99,.09-2.12,.05-3.4l-.07-2.38c-.03-.9-.09-2.08-.19-3.55,0-.2,.28-.33,.85-.38h.47c.31-.02,.5,.47,.59,1.45,.04,.62,.07,1.12,.08,1.48l.09,2.97c.1,3.44-.22,5.6-.98,6.48-.35,.3-1.09,.46-2.21,.5-1.03,.03-1.69-.34-1.99-1.11-.28-.75-.46-2.42-.54-4.99-.06-.96-.11-2.43-.17-4.41,.03-1.59,.12-2.39,.28-2.39,.22-.14,.46-.21,.7-.22Z"/></g><g style="isolation:isolate;"><path d="M154.72,7.68c.79-.01,1.37,.4,1.76,1.23,.17,.54,.29,1.39,.37,2.53,0,.62-.22,.94-.69,.95-.66-.05-1-.17-1-.38,0-.16,0-.32,0-.46-.02-1.22-.29-1.83-.8-1.82h-.2c-.55,.01-.81,.44-.8,1.28v.41c.09,1.22,.84,2.1,2.26,2.66,.6,.45,.91,1.44,.94,2.95,0,.15,0,.31,0,.47v.3c.03,1.75-.18,2.82-.65,3.24-.51,.36-1.13,.55-1.87,.56h-.04c-1.1,.02-1.84-.42-2.21-1.32-.27-.64-.41-1.41-.43-2.32v-.57c-.02-.44,.12-.75,.41-.92,.17-.05,.42-.09,.74-.12,.42,.06,.63,.26,.63,.58-.05,.42-.08,.84-.1,1.28,.01,.84,.33,1.31,.96,1.42h.16c.37,0,.57-.33,.61-.96v-.37c-.03-1.61-.2-2.58-.52-2.89-1.73-.83-2.61-2.13-2.64-3.9v-.86c-.04-1.42,.57-2.37,1.82-2.85,.47-.08,.9-.13,1.29-.14Z"/></g><g style="isolation:isolate;"><path d="M161.64,7.62c.79,0,1.37,.41,1.75,1.25,.16,.55,.27,1.39,.34,2.54,0,.62-.23,.94-.7,.94-.66-.06-1-.18-1-.39,0-.16,0-.32,0-.46,0-1.22-.27-1.83-.78-1.83h-.2c-.55,0-.82,.42-.81,1.26v.41c.07,1.22,.81,2.11,2.22,2.68,.59,.46,.9,1.45,.9,2.96,0,.15,0,.31,0,.47v.3c0,1.75-.22,2.82-.69,3.24-.51,.35-1.14,.53-1.87,.54h-.04c-1.1,0-1.83-.44-2.19-1.35-.26-.64-.4-1.42-.4-2.32v-.57c0-.44,.14-.75,.42-.91,.18-.05,.42-.08,.74-.11,.42,.07,.63,.27,.63,.59-.05,.42-.09,.84-.11,1.28,0,.84,.32,1.32,.94,1.43h.16c.37,0,.57-.32,.62-.95v-.37c0-1.61-.17-2.58-.48-2.9-1.72-.85-2.59-2.16-2.6-3.93v-.86c-.01-1.42,.61-2.36,1.86-2.83,.47-.08,.9-.12,1.29-.12Z"/></g><g style="isolation:isolate;"><path d="M166.04,8.41h.51c.47,0,.7,.5,.7,1.48,.03,.31,.04,.78,.04,1.41v.78c0,1.15-.05,3.8-.16,7.93,0,.39-.33,.62-.98,.7-.48,0-.75-.12-.82-.35,0-1.8,.06-4.56,.2-8.28-.05-1.69-.1-2.79-.16-3.28,0-.26,.22-.39,.66-.39Z"/></g><g style="isolation:isolate;"><path d="M176.27,7.62c.23,0,.36,.17,.38,.5v.65c-.04,.29-.18,.43-.44,.42l-2.38,.08c-.13,1.82-.2,3.29-.22,4.39-.01,.69,0,1.29,.02,1.79,.02,.51,.03,1.12,.02,1.83-.02,1.03-.07,2.27-.17,3.7,0,.11-.29,.16-.84,.15h-.43c-.33-.03-.5-.06-.53-.12-.03-.03-.04-.07-.04-.11,0-.02,0-.04,.01-.05,.09-1.11,.14-2.19,.16-3.24,.01-.77,0-1.53-.02-2.29-.02-.66-.03-1.33-.02-2.02,.02-1.14,.09-2.46,.23-3.97l-2.27,.13c-.26,0-.39-.17-.38-.5v-.73c.02-.31,.13-.47,.35-.49,2.11-.12,3.96-.17,5.58-.14,.34,0,.66,.01,.97,.03Z"/></g><g style="isolation:isolate;"><path d="M179.27,7.94c.42,.01,1.41,.06,2.97,.13,.6,.02,.89,.21,.88,.57l-.02,.51c-.01,.44-.16,.66-.45,.65l-.74-.02c-.46-.01-1.08,0-1.88,.06v.27c-.03,.61-.07,1.48-.13,2.62l2.58-.12c.29,0,.42,.33,.4,.95v.23c-.02,.34-.22,.5-.61,.49-.2,.02-1.03,.06-2.5,.12l-.08,4.96c.55,.02,1.61,0,3.17-.06,.25,0,.37,.22,.37,.64v.16c-.02,.62-.25,.93-.7,.92l-3.68,.16h-.08c-.57-.02-.85-.17-.85-.46-.04-1.9-.03-3.93,.03-6.1l.02-.66c.2-3.9,.43-5.85,.69-5.84,.17-.12,.36-.18,.59-.18Z"/></g></g></g></svg>