<?xml version="1.0" encoding="UTF-8"?><svg id="Calque_2" xmlns="http://www.w3.org/2000/svg" xmlns:xlink="http://www.w3.org/1999/xlink" viewBox="0 0 82.52 83.99"><defs><clipPath id="clippath"><rect x="5.58" y="18.6" width="61.01" height="45.2" style="fill:none;"/></clipPath><clipPath id="clippath-1"><path d="M21.34,33.46l-.13-.82,4.73-.75c.64,3.88,1.92,7.62,3.8,11.07-4.41-1.27-7.69-4.97-8.42-9.5m28.12-5.29l4.73-.75,.13,.82c.71,4.53-1.27,9.06-5.07,11.63,.72-3.86,.79-7.82,.21-11.7m-24.54-2.16c.16,1,.32,2,.49,3l-7.58,1.2,.59,3.73c1.12,6.91,6.93,12.09,13.92,12.42,1.53,1.58,3.34,2.84,5.35,3.73l.51,3.27c.25,1.58-1.07,2.79-1.14,4.22l-3.6,.57,.9,5.65,17-2.69-.9-5.65-3.59,.57c-.52-1.34-2.15-2.08-2.4-3.66l-.52-3.28c1.64-1.46,2.97-3.22,3.93-5.19,6.54-2.48,10.45-9.21,9.38-16.12l-.59-3.74-7.58,1.2c-.15-1-.3-2-.46-3l-23.71,3.77Z" style="fill:none;"/></clipPath></defs><g id="Calque_1-2"><g><g style="opacity:.33;"><ellipse cx="45.9" cy="46.23" rx="33.81" ry="40.29" transform="translate(-18.96 40.19) rotate(-39.89)" style="fill:#1d1d1b;"/></g><circle cx="40.29" cy="40.29" r="40.29" style="fill:#fcdc63;"/><circle cx="40.34" cy="40.46" r="34.59" style="fill:#fff;"/><g style="clip-path:url(#clippath);"><path d="M49.46,28.17c.58,3.89,.51,7.85-.21,11.71,3.8-2.57,5.78-7.11,5.07-11.64l-.13-.82-4.73,.75Zm-19.72,14.79c-1.89-3.45-3.18-7.19-3.82-11.07l-4.73,.75,.13,.82c.73,4.53,4.01,8.23,8.42,9.5m7.53-15.6l2.79,5.5,6.1-1-4.37,4.35,2.81,5.49-5.49-2.81-4.37,4.38,1-6.09-5.52-2.82,6.1-.95,.95-6.05Zm-.23,30.24c.07-1.43,1.39-2.64,1.14-4.22l-.51-3.27c-2.01-.89-3.82-2.15-5.35-3.73-6.99-.34-12.78-5.52-13.9-12.43l-.59-3.74,7.58-1.2c-.17-1-.33-2-.49-3l23.69-3.75c.16,1,.31,2,.46,3l7.58-1.2,.59,3.74c1.07,6.91-2.84,13.64-9.38,16.12-.96,1.97-2.29,3.73-3.93,5.19l.52,3.28c.25,1.58,1.88,2.32,2.4,3.66l3.59-.57,.9,5.65-17,2.69-.89-5.65,3.59-.57Z" style="fill:#557abc;"/></g><g style="clip-path:url(#clippath-1);"><rect x="39.89" y="16.71" width="22.38" height="52.21" transform="translate(-6.22 8.77) rotate(-9.25)" style="fill:#7a9cd1;"/></g><polygon points="37.25 27.37 40.01 32.81 46.03 31.84 41.71 36.15 44.49 41.58 39.06 38.8 34.75 43.12 35.72 37.1 30.28 34.34 36.31 33.39 37.25 27.37" style="fill:#bce4fa;"/><polygon points="37.24 27.46 39.09 38.81 44.49 41.58 41.71 36.15 46.03 31.84 40.01 32.81 37.25 27.37 37.24 27.46" style="fill:#fff;"/></g></g></svg>