<svg id="progress" xmlns="http://www.w3.org/2000/svg" width="50.972" height="47.925" viewBox="0 0 50.972 47.925">
  <g id="Groupe_685" data-name="Groupe 685">
    <path id="Tracé_1339" data-name="Tracé 1339" d="M600.686-137.049a1,1,0,0,0-.987,1.013c.034,2.6.06,5.314.068,8a1,1,0,0,0,1,1h0a1,1,0,0,0,1-1c-.008-2.689-.034-5.415-.068-8.016A1.021,1.021,0,0,0,600.686-137.049Z" transform="translate(-599.372 153.065)" fill="#ffc400"/>
    <path id="Tracé_1340" data-name="Tracé 1340" d="M600.622-113.033a.977.977,0,0,0-1.014.985c-.048,3.3-.139,5.967-.273,7.942a1,1,0,0,0,.93,1.064l.068,0a1,1,0,0,0,1-.932c.135-2.01.228-4.717.277-8.047A1,1,0,0,0,600.622-113.033Z" transform="translate(-599.25 145.056)" fill="#ffc400"/>
    <path id="Tracé_1341" data-name="Tracé 1341" d="M613.759-92.68c-2.435.231-4.134.335-5.509.335a16.429,16.429,0,0,1-2.236-.131,1,1,0,0,0-1.128.852,1,1,0,0,0,.851,1.128,18.421,18.421,0,0,0,2.513.15c1.441,0,3.2-.106,5.7-.344a1,1,0,0,0,.9-1.09A1,1,0,0,0,613.759-92.68Z" transform="translate(-601.098 138.271)" fill="#ffc400"/>
    <path id="Tracé_1342" data-name="Tracé 1342" d="M600.4-151.067h.021a1,1,0,0,0,.979-1.02c-.1-4.758-.192-8.019-.192-8.019a1,1,0,0,0-1.029-.97,1,1,0,0,0-.97,1.028s.095,3.257.192,8A1,1,0,0,0,600.4-151.067Z" transform="translate(-599.208 161.078)" fill="#ffc400"/>
    <path id="Tracé_1344" data-name="Tracé 1344" d="M661.63-96.666c-2.651.1-5.348.231-8.016.4a1,1,0,0,0-.934,1.062,1,1,0,0,0,1,.936l.065,0c2.649-.169,5.328-.3,7.96-.4a1,1,0,0,0,.963-1.035A.991.991,0,0,0,661.63-96.666Z" transform="translate(-617.039 139.599)" fill="#ffc400"/>
    <path id="Tracé_1345" data-name="Tracé 1345" d="M637.646-95.14c-3.093.277-5.888.571-7.976.8a1,1,0,0,0-.887,1.1,1,1,0,0,0,.993.892c.036,0,.072,0,.109-.005,2.081-.225,4.864-.517,7.94-.793a1,1,0,0,0,.906-1.085A1,1,0,0,0,637.646-95.14Z" transform="translate(-609.068 139.091)" fill="#ffc400"/>
    <path id="Tracé_1346" data-name="Tracé 1346" d="M652.873-150.5a1.671,1.671,0,0,0-.194-.719l0,0a1.627,1.627,0,0,0-.218-.31l-.007-.011s-.009-.007-.013-.011a1.618,1.618,0,0,0-.273-.239l-.022-.016c-.035-.023-.065-.051-.1-.073a1.653,1.653,0,0,0-1.051-.2c-.568.059-7.143.708-11.129.011a1.663,1.663,0,0,0-1.928,1.354,1.665,1.665,0,0,0,1.354,1.928,37.752,37.752,0,0,0,7.179.339c-2.036,1.546-4.709,3.469-7.207,5.265s-5.34,3.838-8.17,5.933a8.975,8.975,0,0,1-2.325-1.024c-1.8-.976-4.042-2.188-5.841-.783-5.538,4.322-11.948,12.706-15.419,18.754a1.667,1.667,0,0,0,.617,2.275,1.656,1.656,0,0,0,.827.221,1.666,1.666,0,0,0,1.447-.838c3.209-5.593,9.363-13.677,14.49-17.716a9.193,9.193,0,0,1,2.292,1.016c1.785.966,4.007,2.17,5.816.83,2.838-2.1,5.693-4.153,8.211-5.964,3.093-2.223,5.495-3.957,7.3-5.328l-1.678,7.708a1.666,1.666,0,0,0,1.274,1.983,1.672,1.672,0,0,0,.356.039,1.667,1.667,0,0,0,1.626-1.312l2.762-12.685c0-.021,0-.041.006-.062a1.663,1.663,0,0,0,.025-.263C652.872-150.439,652.875-150.471,652.873-150.5Z" transform="translate(-601.901 158.085)" fill="#ffc400"/>
  </g>
</svg>
