<svg xmlns="http://www.w3.org/2000/svg" width="41.589" height="41.153" viewBox="0 0 41.589 41.153">
  <g id="Groupe_962" data-name="Groupe 962" transform="translate(-164.769 -295.856)">
    <path id="Tracé_1358" data-name="Tracé 1358" d="M262.186,446.608a1.289,1.289,0,0,0,.566-.131c1.212-.6,10.1-.952,17.992-.952a1.248,1.248,0,0,0,0-2.5c-3.973,0-17.1.092-19.2,1.263a1.225,1.225,0,0,0-.473,1.657A1.251,1.251,0,0,0,262.186,446.608Z" transform="translate(-94.958 -146.05)" fill="#ffc400"/>
    <path id="Tracé_1359" data-name="Tracé 1359" d="M263.03,448.793a1.249,1.249,0,0,0,.263,2.469,1.266,1.266,0,0,0,.265-.028,125.292,125.292,0,0,1,13.673-.871,1.248,1.248,0,0,0,.218-2.487A122.824,122.824,0,0,0,263.03,448.793Z" transform="translate(-95.147 -146.86)" fill="#ffc400"/>
    <path id="Tracé_1360" data-name="Tracé 1360" d="M282,461.766c-.288.017-.986.054-1.963.107-8.1.432-17.639.964-19.493,1.256a1.248,1.248,0,0,0,.192,2.482,1.3,1.3,0,0,0,.2-.015c1.965-.309,14.514-.978,19.238-1.229.984-.052,1.687-.09,1.976-.107a1.248,1.248,0,0,0-.146-2.492Z" transform="translate(-94.717 -149.194)" fill="#ffc400"/>
    <path id="Tracé_1361" data-name="Tracé 1361" d="M278.875,469.086a1.248,1.248,0,1,0,0-2.5c-1.21,0-3.25.211-5.833.478-3.33.344-7.476.772-12.035,1a1.248,1.248,0,0,0,.06,2.495c.021,0,.042,0,.063,0,4.625-.228,8.808-.66,12.169-1.008C275.811,469.292,277.794,469.086,278.875,469.086Z" transform="translate(-94.773 -150.004)" fill="#ffc400"/>
    <path id="Tracé_1362" data-name="Tracé 1362" d="M282,481.5c-.947.068-2.523.225-4.519.426-4.128.412-9.78.977-14.062,1.163a1.248,1.248,0,0,0,.053,2.5l.055,0c4.352-.189,10.045-.758,14.2-1.174,1.976-.2,3.538-.354,4.45-.419A1.249,1.249,0,0,0,282,481.5Z" transform="translate(-95.176 -152.507)" fill="#ffc400"/>
    <path id="Tracé_1366" data-name="Tracé 1366" d="M277.068,486.74c-3.5-.146-13.339,1.113-13.756,1.167a1.248,1.248,0,0,0,.157,2.486,1.312,1.312,0,0,0,.161-.01c.1-.013,10.056-1.276,13.337-1.149a1.248,1.248,0,1,0,.1-2.494Z" transform="translate(-95.176 -153.384)" fill="#ffc400"/>
    <path id="Tracé_1" data-name="Tracé 1" d="M296.837,258.938a1.288,1.288,0,0,1-.914-.378l-5.962-5.962a1.292,1.292,0,0,1,0-1.827l5.962-5.962a1.292,1.292,0,0,1,1.827,1.827l-5.049,5.049,5.049,5.049a1.292,1.292,0,0,1-.914,2.206Z" transform="translate(-52.579 593.985) rotate(-90)" fill="#ffc400"/>
    <path id="Tracé_1-2" data-name="Tracé 1" d="M296.837,258.938a1.288,1.288,0,0,1-.914-.378l-5.962-5.962a1.292,1.292,0,0,1,0-1.827l5.962-5.962a1.292,1.292,0,0,1,1.827,1.827l-5.049,5.049,5.049,5.049a1.292,1.292,0,0,1-.914,2.206Z" transform="translate(-52.579 609.139) rotate(-90)" fill="#ffc400"/>
    <path id="Tracé_1-3" data-name="Tracé 1" d="M296.837,258.938a1.288,1.288,0,0,1-.914-.378l-5.962-5.962a1.292,1.292,0,0,1,0-1.827l5.962-5.962a1.292,1.292,0,0,1,1.827,1.827l-5.049,5.049,5.049,5.049a1.292,1.292,0,0,1-.914,2.206Z" transform="translate(-52.579 626.591) rotate(-90)" fill="#ffc400"/>
  </g>
</svg>
