<?xml version="1.0" encoding="UTF-8"?><svg id="Calque_2" xmlns="http://www.w3.org/2000/svg" xmlns:xlink="http://www.w3.org/1999/xlink" viewBox="0 0 82.51 83.99"><defs><clipPath id="clippath"><rect x=".88" y="17.4" width="72.09" height="53.41" style="fill:none;"/></clipPath><clipPath id="clippath-1"><path d="M19.5,34.95l-.15-1,5.59-.89c.77,4.58,2.29,9,4.51,13.08-5.23-1.48-9.13-5.86-10-11.23m33.24-6.25l5.59-.89,.15,1c.83,5.36-1.51,10.72-6,13.75,.85-4.56,.94-9.24,.25-13.83m-29-2.55c.18,1.16,.37,2.34,.57,3.52l-9,1.42,.7,4.41c1.31,8.17,8.17,14.29,16.43,14.69,1.8,1.86,3.94,3.36,6.31,4.41l.61,3.86c.3,1.87-1.27,3.3-1.35,5l-4.25,.68,1,6.67,20.09-3.18-1.06-6.68-4.24,.68c-.61-1.58-2.54-2.46-2.84-4.33l-.61-3.87c1.93-1.72,3.51-3.8,4.64-6.13,7.71-2.93,12.33-10.84,11.09-19l-.7-4.42-9,1.42c-.18-1.18-.36-2.36-.55-3.53l-27.84,4.38Z" style="fill:none;"/></clipPath></defs><g id="Calque_1-2"><g><g style="opacity:.33;"><ellipse cx="45.9" cy="46.23" rx="33.81" ry="40.29" transform="translate(-18.96 40.19) rotate(-39.89)" style="fill:#1d1d1b;"/></g><circle cx="40.29" cy="40.29" r="40.29" style="fill:#fcdc63;"/><circle cx="40.34" cy="40.46" r="34.59" style="fill:#fff;"/><line x1="35.29" y1="11.1" x2="36.67" y2="18.9" style="fill:none; stroke:#59d3a5; stroke-linecap:round; stroke-width:2.45px;"/><line x1="44.47" y1="11.9" x2="42.04" y2="19.44" style="fill:none; stroke:#59d3a5; stroke-linecap:round; stroke-width:2.45px;"/><line x1="27.04" y1="14.77" x2="31.65" y2="21.21" style="fill:none; stroke:#59d3a5; stroke-linecap:round; stroke-width:2.45px;"/><g style="clip-path:url(#clippath);"><path d="M52.74,28.7c.69,4.59,.6,9.27-.25,13.83,4.49-3.03,6.83-8.39,6-13.75l-.15-1-5.6,.92Zm-23.29,17.48c-2.22-4.08-3.74-8.5-4.51-13.08l-5.59,.89,.15,1c.87,5.37,4.77,9.75,10,11.23m8.89-18.46l3.29,6.5,7.2-1.15-5.16,5.14,3.32,6.49-6.49-3.32-5.15,5.17,1.16-7.2-6.5-3.3,7.2-1.13,1.13-7.2Zm-.28,35.73c.08-1.69,1.65-3.12,1.35-5l-.61-3.86c-2.37-1.05-4.51-2.55-6.31-4.41-8.31-.36-15.21-6.51-16.52-14.72l-.7-4.41,9-1.42c-.2-1.18-.39-2.36-.57-3.52l28-4.44c.19,1.17,.37,2.35,.55,3.53l9-1.42,.7,4.42c1.24,8.16-3.38,16.07-11.09,19-1.13,2.33-2.71,4.41-4.64,6.13l.61,3.87c.3,1.87,2.23,2.75,2.84,4.33l4.25-.68,1,6.68-20.09,3.18-1-6.67,4.23-.59Z" style="fill:#09aa9a;"/></g><g style="clip-path:url(#clippath-1);"><rect x="41.42" y="15.17" width="26.45" height="61.69" transform="translate(-6.69 9.38) rotate(-9.25)" style="fill:#59d3a5;"/></g><polygon points="37.96 25.88 40.38 30.66 45.67 29.81 41.87 33.59 44.31 38.36 39.55 35.92 35.77 39.71 36.62 34.43 31.84 32 37.13 31.18 37.96 25.88" style="fill:#bce4fa;"/><polygon points="37.94 25.96 39.57 35.93 44.31 38.36 41.87 33.59 45.67 29.81 40.38 30.66 37.96 25.88 37.94 25.96" style="fill:#fff;"/><polygon points="39.84 37.5 42.26 42.27 47.55 41.43 43.75 45.21 46.19 49.97 41.43 47.53 37.65 51.33 38.5 46.04 33.72 43.62 39.01 42.79 39.84 37.5" style="fill:#bce4fa;"/><polygon points="39.83 37.58 41.45 47.54 46.19 49.97 43.75 45.21 47.55 41.43 42.26 42.27 39.84 37.5 39.83 37.58" style="fill:#fff;"/></g></g></svg>