<?xml version="1.0" encoding="UTF-8"?><svg id="Calque_2" xmlns="http://www.w3.org/2000/svg" xmlns:xlink="http://www.w3.org/1999/xlink" viewBox="0 0 82.51 83.99"><defs><clipPath id="clippath"><rect x=".21" y="15.26" width="73.84" height="54.7" style="fill:none;"/></clipPath><clipPath id="clippath-1"><path d="M19.29,33.24l-.16-1,5.72-.91c.78,4.69,2.35,9.22,4.63,13.4-5.34-1.53-9.31-6.02-10.19-11.5m34-6.41l5.72-.9,.16,1c.85,5.49-1.54,10.97-6.14,14.08,.87-4.68,.96-9.47,.26-14.17m-29.66-2.61c.19,1.2,.39,2.4,.59,3.61l-9.17,1.45,.72,4.52c1.36,8.34,8.38,14.6,16.82,15,1.84,1.91,4.04,3.44,6.47,4.51l.63,4c.3,1.91-1.3,3.38-1.39,5.11l-4.36,.69,1.09,6.84,20.58-3.26-1.09-6.84-4.35,.69c-.62-1.62-2.6-2.52-2.9-4.43l-.63-4c1.98-1.76,3.6-3.9,4.76-6.28,7.88-3.03,12.59-11.12,11.34-19.47l-.72-4.52-9.17,1.45c-.18-1.21-.37-2.42-.55-3.61l-28.67,4.54Z" style="fill:none;"/></clipPath></defs><g id="Calque_1-2"><g><g style="opacity:.33;"><ellipse cx="45.9" cy="46.23" rx="33.81" ry="40.29" transform="translate(-18.97 40.19) rotate(-39.89)" style="fill:#1d1d1b;"/></g><circle cx="40.29" cy="40.29" r="40.29" style="fill:#fcdc63;"/><circle cx="40.34" cy="40.46" r="34.59" style="fill:#fff;"/><g style="clip-path:url(#clippath);"><path d="M53.33,26.83c.71,4.7,.62,9.49-.26,14.17,4.6-3.11,6.99-8.59,6.14-14.08l-.16-1-5.72,.91Zm-23.85,17.91c-2.28-4.18-3.85-8.71-4.63-13.4l-5.72,.91,.16,1c.88,5.48,4.85,9.97,10.19,11.5m9.09-18.91l3.38,6.66,7.38-1.18-5.3,5.27,3.41,6.65-6.65-3.4-5.27,5.29,1.18-7.38-6.66-3.37,7.38-1.16,1.15-7.38Zm-.28,36.6c.09-1.73,1.69-3.2,1.39-5.11l-.63-4c-2.43-1.07-4.63-2.6-6.47-4.51-8.44-.4-15.46-6.66-16.82-15l-.72-4.52,9.17-1.45c-.2-1.21-.4-2.42-.59-3.61l28.68-4.54c.18,1.19,.38,2.4,.55,3.61l9.17-1.45,.72,4.52c1.28,8.37-3.45,16.49-11.35,19.52-1.16,2.38-2.78,4.52-4.76,6.28l.63,4c.3,1.91,2.28,2.81,2.9,4.43l4.35-.69,1.09,6.84-20.58,3.26-1.09-6.84,4.36-.74Z" style="fill:#ad4392;"/></g><g style="clip-path:url(#clippath-1);"><rect x="41.74" y="12.97" width="27.09" height="63.19" transform="translate(-6.45 9.47) rotate(-9.25)" style="fill:#dd4592;"/></g><polygon points="40.35 37.06 42.64 41.58 47.65 40.78 44.06 44.36 46.37 48.87 41.86 46.56 38.28 50.15 39.08 45.14 34.56 42.85 39.57 42.07 40.35 37.06" style="fill:#bce4fa;"/><polygon points="40.33 37.2 41.85 46.56 41.86 46.56 46.37 48.87 44.06 44.36 47.65 40.78 42.64 41.58 40.35 37.06 40.33 37.2" style="fill:#fff;"/><polygon points="31.69 27.01 33.98 31.53 38.99 30.73 35.4 34.3 37.71 38.82 33.2 36.5 29.62 40.1 30.42 35.09 25.9 32.8 30.91 32.01 31.69 27.01" style="fill:#bce4fa;"/><polygon points="45.53 24.82 47.82 29.34 52.82 28.54 49.23 32.12 51.54 36.63 47.03 34.32 43.45 37.91 44.26 32.9 39.73 30.61 44.74 29.83 45.53 24.82" style="fill:#fff;"/><line x1="35.84" y1="9.45" x2="37.23" y2="17.24" style="fill:none; stroke:#dd4592; stroke-linecap:round; stroke-width:2.45px;"/><line x1="45.03" y1="10.25" x2="42.59" y2="17.78" style="fill:none; stroke:#dd4592; stroke-linecap:round; stroke-width:2.45px;"/><line x1="27.6" y1="13.12" x2="32.21" y2="19.56" style="fill:none; stroke:#dd4592; stroke-linecap:round; stroke-width:2.45px;"/><line x1="15.16" y1="57.88" x2="21.98" y2="53.87" style="fill:none; stroke:#dd4592; stroke-linecap:round; stroke-width:2.45px;"/><line x1="12.71" y1="48.99" x2="20.62" y2="48.65" style="fill:none; stroke:#dd4592; stroke-linecap:round; stroke-width:2.45px;"/><line x1="21.47" y1="64.33" x2="25.9" y2="57.77" style="fill:none; stroke:#dd4592; stroke-linecap:round; stroke-width:2.45px;"/><line x1="68.32" y1="53.14" x2="61.1" y2="49.89" style="fill:none; stroke:#dd4592; stroke-linecap:round; stroke-width:2.45px;"/><line x1="62.49" y1="60.28" x2="57.63" y2="54.02" style="fill:none; stroke:#dd4592; stroke-linecap:round; stroke-width:2.45px;"/><line x1="69.94" y1="44.26" x2="62.02" y2="44.44" style="fill:none; stroke:#dd4592; stroke-linecap:round; stroke-width:2.45px;"/></g></g></svg>