<?xml version="1.0" encoding="UTF-8"?><svg id="Calque_2" xmlns="http://www.w3.org/2000/svg" viewBox="0 0 80.58 80.58"><g id="Calque_1-2"><g id="elements_graphiques"><g><circle cx="40.29" cy="40.29" r="40.29" style="fill:#09aa9a;"/><polygon points="40.91 21.39 47.17 17.84 50.52 24.21 57.71 24.62 57.09 31.79 62.91 36.01 58.51 41.71 61.13 48.41 54.35 50.82 52.93 57.88 45.92 56.24 40.91 61.4 35.9 56.24 28.89 57.88 27.47 50.82 20.69 48.41 23.31 41.71 18.91 36.01 24.73 31.79 24.11 24.62 31.3 24.21 34.65 17.84 40.91 21.39" style="fill:#fcdc63;"/><path d="M49.94,49.66h-17.94c-1.87-3.83-2.12-8.26-.68-12.27,2.38-6.95,.68-9.27,.68-9.27h17.94s1.7,2.32-.68,9.27c-1.44,4.01-1.19,8.44,.68,12.27" style="fill:#fcdc63;"/><path d="M49.94,49.66h-17.94c-1.87-3.83-2.12-8.26-.68-12.27,2.38-6.95,.68-9.27,.68-9.27h17.94s1.7,2.32-.68,9.27c-1.44,4.01-1.19,8.44,.68,12.27Z" style="fill:none; stroke:#e71d73; stroke-width:1.06px;"/><line x1="35.54" y1="35.1" x2="46.83" y2="35.1" style="fill:none; stroke:#e71d73; stroke-width:1.06px;"/><line x1="34.83" y1="38.89" x2="46.11" y2="38.89" style="fill:none; stroke:#e71d73; stroke-width:1.06px;"/><line x1="34.11" y1="42.68" x2="45.4" y2="42.68" style="fill:none; stroke:#e71d73; stroke-width:1.06px;"/></g></g></g></svg>