<?xml version="1.0" encoding="UTF-8"?><svg id="Calque_2" xmlns="http://www.w3.org/2000/svg" viewBox="0 0 211.76 35.29"><g id="Calque_1-2"><g id="elements_graphiques"><path d="M211.76,30.78s-1-2-12.38-2.63c-38.11-2.18-66.7,7.87-122,7.1-19.63-.28-28.93-1.9-69.87-1.9-2.09-.08-4.18-.04-6.26,.1L0,5.18l6.67-.1c31.25-.49,50.15,1.36,68.51,1.92C119.82,8.67,152.89-2.3,198.1,.44c10.56,.64,11.16,2.56,11.16,2.56l2.5,27.78Z" style="fill:#fff;"/><g style="isolation:isolate;"><path d="M41.69,11.85c2.04,.08,3.34,.98,3.92,2.7,.16,.55,.22,1.25,.19,2.12-.06,1.39-.75,2.57-2.1,3.55l-.2,.07c0,.09,.46,1.24,1.39,3.46,.56,1.62,.84,2.6,.82,2.93v.08c-.18,.44-.57,.64-1.16,.62h-.12c-.15-.01-.41-.62-.79-1.83-.47-1.26-1.15-2.88-2.04-4.85l-.51-.02-.08,1.99c-.23,3.09-.44,4.63-.62,4.63-.09,.07-.25,.11-.47,.1l-.51-.02c-.23,0-.37-.17-.41-.48,.02-.44,.13-2.07,.35-4.87,0-1.53,.04-3.03,.1-4.49l.19-4.76c.02-.55,.25-.81,.7-.79,0-.08,.45-.11,1.33-.1Zm-.42,1.62c-.09,1.05-.17,2.18-.21,3.39-.02,.41-.03,1.09-.04,2.03,.03,.11,.07,.16,.11,.16h.23c1.2,.06,1.97-.29,2.31-1.03,.34-.59,.52-1.2,.54-1.86v-.19c.07-1.59-.91-2.42-2.94-2.5Z"/></g><g style="isolation:isolate;"><path d="M49.49,14.36c.42,.01,1.41,.05,2.97,.13,.6,.02,.89,.21,.88,.57l-.02,.51c-.01,.44-.16,.66-.45,.65l-.74-.02c-.46-.01-1.08,0-1.88,.06v.27c-.03,.61-.07,1.48-.13,2.62l2.58-.12c.29,0,.42,.33,.4,.95v.23c-.02,.34-.22,.5-.61,.49-.2,.02-1.03,.06-2.51,.12l-.07,4.96c.55,.02,1.61,0,3.17-.06,.25,0,.37,.22,.37,.64v.16c-.02,.62-.25,.93-.7,.92l-3.68,.16h-.08c-.57-.02-.85-.17-.85-.46-.05-1.9-.04-3.93,.03-6.1l.02-.66c.2-3.9,.42-5.85,.68-5.84,.17-.12,.36-.18,.59-.18Zm2.98-4.25h.12c.28,.01,.48,.32,.6,.92v.23c-.02,.33-.54,.69-1.56,1.09-1.06,.57-1.69,.85-1.9,.84h-.12c-.4-.02-.64-.3-.72-.85v-.27c.02-.27,.42-.54,1.21-.82,1.16-.62,1.95-1,2.38-1.14Z"/></g><g style="isolation:isolate;"><path d="M58.87,14.5c.79,.02,1.36,.45,1.71,1.3,.14,.55,.23,1.4,.27,2.55-.01,.62-.26,.93-.73,.92-.66-.07-.99-.21-.99-.41,.01-.16,.02-.32,.02-.46,.03-1.22-.21-1.84-.73-1.85h-.2c-.55-.02-.83,.4-.85,1.23v.41c.03,1.22,.74,2.14,2.13,2.75,.58,.48,.85,1.47,.82,2.99,0,.15-.01,.3-.02,.47v.3c-.05,1.75-.31,2.82-.79,3.21-.52,.34-1.15,.5-1.89,.48h-.04c-1.1-.03-1.82-.5-2.16-1.41-.24-.65-.36-1.43-.33-2.33v-.57c.02-.44,.17-.74,.46-.9,.18-.04,.43-.07,.75-.09,.41,.08,.62,.29,.61,.61-.06,.41-.11,.84-.15,1.28-.02,.84,.28,1.33,.9,1.46h.16c.36,.01,.58-.3,.65-.93v-.37c.05-1.61-.09-2.58-.39-2.91-1.7-.9-2.53-2.24-2.48-4.01l.02-.86c.03-1.42,.68-2.34,1.94-2.78,.47-.07,.9-.1,1.29-.09Z"/></g><g style="isolation:isolate;"><path d="M63.16,14.71c.57,.06,.86,.2,.85,.41-.23,2.73-.35,4.5-.37,5.31-.05,3.02,.06,4.78,.34,5.28,.15,.21,.33,.32,.54,.32h.04c.76,.01,1.14-.4,1.15-1.23,.12-.98,.19-2.11,.22-3.4l.04-2.38c.02-.9,0-2.08-.02-3.56,0-.2,.29-.31,.86-.34h.47c.31,.01,.48,.51,.52,1.5,.02,.62,.02,1.12,.01,1.49l-.05,2.97c-.06,3.44-.49,5.59-1.28,6.42-.36,.28-1.11,.41-2.23,.39-1.03-.02-1.67-.42-1.93-1.2-.25-.77-.35-2.44-.3-5.01,0-.96,0-2.43,.04-4.41,.11-1.59,.24-2.38,.39-2.38,.23-.12,.47-.19,.71-.18Z"/></g><g style="isolation:isolate;"><path d="M71.2,14.57c.29,.04,.43,.18,.43,.43-.03,.39-.05,.66-.05,.82-.03,3.16-.23,6.67-.58,10.5l2.34,.02c.46,0,.76,.11,.9,.32,.05,.21,.07,.34,.07,.39v.35c0,.47-.32,.7-.95,.69l-2.85-.03c-.75,0-1.22-.21-1.4-.6v-.12c.15-1.65,.39-5.76,.72-12.34,.16-.31,.62-.46,1.37-.45Z"/></g><g style="isolation:isolate;"><path d="M80.87,14.66c.23,0,.36,.17,.39,.49v.65c-.02,.29-.16,.43-.42,.43l-2.37,.11c-.11,1.82-.16,3.29-.17,4.39,0,.69,.01,1.29,.04,1.79,.03,.51,.04,1.12,.04,1.83,0,1.04-.05,2.27-.12,3.7,0,.11-.29,.17-.84,.16h-.43c-.33-.02-.5-.05-.53-.11-.03-.03-.04-.07-.04-.11,0-.02,0-.04,0-.05,.08-1.11,.12-2.19,.12-3.24,0-.77-.01-1.53-.05-2.29-.03-.66-.04-1.33-.04-2.02,0-1.14,.07-2.46,.18-3.97l-2.27,.16c-.26,0-.39-.17-.39-.49v-.73c0-.31,.12-.47,.34-.5,2.1-.15,3.96-.22,5.58-.21,.34,0,.66,0,.97,.01Z"/></g><g style="isolation:isolate;"><path d="M86.94,14.65h.55c.99,0,1.49,.51,1.49,1.55,.16,1.04,.25,2.41,.26,4.1-.08,4.77-.16,7.15-.23,7.15-.19,.21-.45,.32-.78,.32h-.51c-.29,0-.43-.11-.43-.35,.05-.75,.12-2.34,.21-4.77l-3.2-.18c0,.53,.03,2.23,.07,5.08,.03,.23,.04,.37,.04,.43,0,.26-.43,.39-1.29,.4-.22,0-.37-.18-.43-.54l-.14-10.94c0-.51,.32-.99,.97-1.45,1.12-.53,2.27-.79,3.43-.8Zm-2.79,3.34c.09,1.86,.13,2.82,.13,2.89l3.36,.14,.07-2.42c0-1.51-.31-2.26-.91-2.26-.14-.03-.27-.04-.39-.04-.66,0-1.33,.2-1.99,.6-.18,.21-.27,.58-.27,1.1Z"/></g><g style="isolation:isolate;"><path d="M97.65,14.49c.23,0,.36,.16,.4,.48v.65c0,.29-.14,.43-.4,.44l-2.37,.16c-.07,1.82-.09,3.29-.07,4.4,.01,.69,.04,1.29,.08,1.79,.04,.51,.07,1.12,.08,1.83,.02,1.03,0,2.27-.05,3.7,0,.11-.28,.17-.84,.18h-.43c-.33,0-.5-.03-.53-.09-.03-.03-.04-.07-.04-.11,0-.02,0-.04,0-.05,.05-1.11,.07-2.2,.05-3.24-.01-.77-.04-1.53-.1-2.28-.04-.66-.07-1.33-.08-2.02-.02-1.14,.01-2.46,.1-3.98l-2.26,.2c-.26,0-.39-.16-.4-.48v-.73c-.02-.31,.09-.47,.31-.5,2.1-.19,3.96-.3,5.57-.33,.34,0,.66,0,.97,0Z"/></g><g style="isolation:isolate;"><path d="M102.36,14.47c.79-.02,1.38,.38,1.78,1.21,.17,.54,.31,1.38,.41,2.53,.02,.62-.21,.94-.67,.96-.67-.04-1-.16-1.01-.36,0-.16,0-.32,0-.46-.04-1.22-.31-1.83-.83-1.81h-.19c-.55,.02-.81,.45-.78,1.29v.41c.11,1.21,.88,2.09,2.3,2.63,.61,.45,.93,1.43,.98,2.94,0,.15,0,.31,0,.47v.3c.06,1.74-.14,2.83-.6,3.25-.5,.37-1.12,.56-1.86,.58h-.04c-1.1,.03-1.84-.4-2.23-1.29-.28-.64-.43-1.41-.46-2.31l-.02-.57c-.01-.44,.12-.75,.4-.92,.17-.05,.42-.09,.74-.13,.42,.06,.63,.25,.64,.58-.04,.42-.07,.85-.08,1.28,.03,.84,.35,1.31,.98,1.41h.16c.36-.02,.56-.34,.6-.97v-.37c-.06-1.61-.25-2.58-.57-2.89-1.75-.81-2.64-2.1-2.7-3.87l-.03-.86c-.04-1.42,.55-2.38,1.79-2.88,.47-.09,.9-.14,1.29-.16Z"/></g><g style="isolation:isolate;"><path d="M112.82,14.07c1.38-.16,2.37,.39,2.99,1.66,.57,1.5,.95,3.13,1.16,4.9,.35,3.05,.18,5.03-.53,5.96-.76,.59-1.83,.96-3.21,1.12-.67,.08-1.03-.08-1.08-.46v-.04c-.35-2.98-.83-6.94-1.43-11.87-.04-.39,.12-.68,.49-.88,.46-.18,.99-.31,1.61-.38Zm-.65,1.84c.5,3.37,.77,5.27,.82,5.69,.24,2.29,.4,3.78,.48,4.47,1.26-.31,1.88-.61,1.84-.9,.35-.34,.41-1.81,.18-4.41l-.03-.23c-.38-3.23-1.03-4.8-1.96-4.69-.04-.05-.29-.08-.76-.07l-.57,.15Z"/></g><g style="isolation:isolate;"><path d="M118.96,13.44c.57-.01,.87,.09,.89,.29,.12,2.73,.23,4.49,.31,5.29,.33,2.99,.67,4.72,1.01,5.17,.18,.19,.37,.27,.58,.25h.04c.75-.09,1.08-.54,.98-1.37,0-.98-.08-2.11-.22-3.38l-.26-2.36c-.1-.89-.25-2.06-.47-3.51-.02-.2,.25-.35,.81-.44l.46-.05c.3-.03,.54,.44,.7,1.41,.09,.62,.16,1.11,.2,1.47l.33,2.94c.38,3.41,.23,5.58-.45,6.51-.32,.32-1.04,.55-2.16,.67-1.02,.11-1.71-.2-2.06-.95-.34-.73-.65-2.36-.94-4.91-.13-.95-.31-2.41-.52-4.37-.1-1.58-.07-2.38,.09-2.4,.21-.15,.44-.24,.67-.27Z"/></g><g style="isolation:isolate;"><path d="M136.94,10.81c.65,0,1.01,.27,1.05,.8,.08,.87,.28,3.73,.6,8.6l.02,.27c.12,1.32,.36,2.65,.72,4.01,.03,.27-.31,.46-1.01,.56-.49,.05-.77-.27-.83-.94-.24-.95-.4-1.82-.48-2.62-.07-.71-.23-2.72-.48-6.04-.79,2.17-1.26,3.33-1.41,3.47-.08,.06-.16,.09-.23,.1l-.31,.03c-.48-.2-1.3-1.46-2.47-3.77,.8,5.26,1.31,8.46,1.51,9.59-.16,.36-.52,.56-1.08,.61l-.19,.02c-.31,.03-.49-.16-.52-.58-.37-2.02-.93-6.07-1.67-12.12-.05-.6,.36-1.07,1.24-1.41,.27,0,1.33,1.68,3.17,5.02,.86-2.54,1.39-4.25,1.57-5.13,.18-.28,.44-.43,.78-.47Z"/></g><g style="isolation:isolate;"><path d="M142.68,10.96c1.21-.1,2.11,.81,2.69,2.72,.29,1.33,.49,2.61,.59,3.83,.14,3.05,.13,4.58-.02,4.59-.05,.45-.28,.97-.7,1.55-.51,.51-1.16,.8-1.93,.86-1.06,.09-1.86-1.13-2.41-3.64-.22-1.07-.37-2.11-.45-3.14l-.07-.9c-.23-2.84,.11-4.63,1.01-5.37,.31-.21,.74-.37,1.29-.5Zm-.73,6.45c.42,3.62,.92,5.41,1.5,5.37,.75-.06,1.07-1.54,.97-4.43l-.14-1.75c-.12-1.47-.45-2.64-.99-3.49-.17-.17-.37-.24-.61-.22-.42,.03-.65,1.11-.68,3.23-.06,0-.08,.44-.05,1.3Z"/></g><g style="isolation:isolate;"><path d="M149.81,10.51c1.38-.1,2.35,.5,2.91,1.79,.5,1.52,.81,3.17,.94,4.95,.22,3.06-.04,5.04-.79,5.93-.79,.55-1.88,.88-3.26,.98-.68,.05-1.03-.12-1.05-.51v-.04c-.22-2.99-.51-6.97-.89-11.92-.03-.39,.15-.68,.53-.86,.46-.16,1.01-.27,1.62-.31Zm-.73,1.81c.35,3.39,.53,5.29,.56,5.72,.14,2.3,.23,3.79,.28,4.48,1.27-.25,1.9-.53,1.88-.82,.37-.32,.49-1.78,.37-4.39l-.02-.23c-.23-3.25-.81-4.84-1.75-4.77-.04-.06-.29-.09-.75-.1l-.58,.12Z"/></g><g style="isolation:isolate;"><path d="M155.91,10.11c.58,.02,.87,.13,.88,.34-.02,2.75,0,4.52,.04,5.33,.18,3.02,.43,4.77,.75,5.25,.17,.2,.36,.29,.57,.28h.04c.75-.05,1.11-.49,1.06-1.32,.04-.99,.03-2.13-.05-3.41l-.14-2.38c-.05-.9-.15-2.08-.29-3.55-.01-.2,.27-.34,.84-.4l.47-.03c.31-.02,.52,.47,.64,1.45,.06,.62,.11,1.12,.13,1.48l.18,2.97c.21,3.44-.05,5.62-.79,6.52-.34,.31-1.07,.5-2.2,.56-1.03,.06-1.7-.29-2.02-1.06-.31-.75-.54-2.4-.69-4.98-.08-.96-.18-2.43-.3-4.41-.02-1.59,.05-2.39,.21-2.4,.22-.14,.45-.22,.69-.24Z"/></g><g style="isolation:isolate;"><path d="M164.08,9.4c.29,.02,.44,.15,.45,.41,0,.39,0,.67,0,.82,.16,3.16,.18,6.67,.07,10.52l2.34-.12c.46-.02,.77,.07,.91,.27,.06,.21,.09,.33,.1,.39l.02,.35c.02,.47-.28,.72-.9,.75l-2.85,.14c-.75,.04-1.23-.13-1.43-.51v-.12c.04-1.66,.03-5.78-.05-12.36,.14-.32,.59-.5,1.34-.54Z"/></g><g style="isolation:isolate;"><path d="M170.13,9.37c.42-.02,1.41-.04,2.97-.08,.6-.02,.91,.15,.92,.51l.02,.51c.02,.44-.12,.67-.4,.68l-.74,.03c-.46,.02-1.08,.08-1.87,.19v.27c.04,.61,.06,1.48,.08,2.62l2.57-.3c.29-.01,.44,.3,.47,.92v.23c.02,.34-.17,.52-.56,.53-.19,.03-1.02,.13-2.49,.3l.28,4.96c.55-.02,1.61-.12,3.16-.28,.25,0,.39,.19,.42,.61v.16c.03,.62-.18,.95-.62,.96l-3.66,.42h-.08c-.57,.03-.87-.11-.88-.39-.18-1.89-.31-3.92-.4-6.09l-.03-.66c-.08-3.91,.01-5.87,.27-5.88,.16-.14,.35-.21,.58-.22Z"/></g></g></g></svg>